# xmcd
#
# Track frame offsets:
#	150
#	15148
#	31011
#	45908
#	62101
#	77984
#	93794
#	110514
#	127953
#	141575
#	160493
#
# Disc length: 2348 seconds
#
# Revision: 1
# Processed by: cddbd v1.4PL0 Copyright (c) Steve Scherf et al.
# Submitted via: audiograbber 1.82.01
#
DISCID=81092a0b
DTITLE=BlueTales - Rock`n Roll 2000
DYEAR=2000
DGENRE=Rock
TTITLE0=No Mercy (Ska-Version)
TTITLE1=Big Brother`s watching you
TTITLE2=Touch me
TTITLE3=Dear Landlord
TTITLE4=Put on the helmet
TTITLE5=I`ll be the one for you
TTITLE6=365503
TTITLE7=No,no,no,I can`t do that
TTITLE8=Rock`n Roll Bus
TTITLE9=No mercy (southern)
TTITLE10=Put on the helmet (acoustic)
EXTD=
EXTT0=
EXTT1=
EXTT2=
EXTT3=
EXTT4=
EXTT5=
EXTT6=
EXTT7=
EXTT8=
EXTT9=
EXTT10=
PLAYORDER=
